<?xml version="1.0" encoding="utf-8"?>
<!-- Generator: Adobe Illustrator 23.0.3, SVG Export Plug-In . SVG Version: 6.00 Build 0)  -->
<svg version="1.1" id="Ebene_1" xmlns="http://www.w3.org/2000/svg" xmlns:xlink="http://www.w3.org/1999/xlink" x="0px" y="0px"
	 viewBox="0 0 512 512" style="enable-background:new 0 0 512 512;" xml:space="preserve">
<style type="text/css">
	.st0{fill:#FFFFFF;}
</style>
<title>Add Circle</title>
<g>
	<path class="st0" d="M236.1,234.4l0.9-1c-5.6-6.3-10.9-12.3-15.2-18.6c-4.5-6.1-8-12.4-10-18.4c-1.7-6.1-2.1-11.6,0.1-16.4
		c2-4.8,5.9-9.3,11.4-13.4c10.7-8.1,25.8-13.1,43-15.6c0.5-0.1,0.9-0.1,1.3-0.2l-10.8,10.5l51.3-8.4L264.7,128l5.2,13.4
		c-1.3,0-2.8,0.1-4.6,0.2c-9.6,0.6-19.2,2-28.3,4.7c-9.1,2.6-17.6,6.7-24.6,11.9c-6.9,5.3-12.6,11.9-14.8,19.4
		c-2.3,7.5-0.8,15.4,2.7,22.3C207.6,213.9,221.1,225.2,236.1,234.4z"/>
	<path class="st0" d="M319.7,307.1c-6.4-15-18.3-27.1-31.5-36.9l-0.8,1c4.9,6.7,9.6,13.1,13.4,19.8c4,6.5,7,13.3,8.8,19.6
		c1.5,6.5,1.9,12.3-0.1,17.5c-1.8,5.1-5.2,9.9-10,14.3c-9.4,8.6-22.7,14-37.9,16.6c-10.9,1.9-22.3,2-34.2,1.9l12.1-12.7l-50.5,9
		l42.7,26.8l-6.2-17.1c12.1,2.3,24.5,3.3,36.9,2.4c8.5-0.6,16.9-2.1,24.9-5c8-2.8,15.5-7.1,21.6-12.7c6.1-5.6,11.1-12.7,13-20.7
		C324,323,322.8,314.6,319.7,307.1z"/>
</g>
</svg>
