<?xml version="1.0" encoding="utf-8"?>
<!-- Generator: Adobe Illustrator 23.0.3, SVG Export Plug-In . SVG Version: 6.00 Build 0)  -->
<svg version="1.1" id="Ebene_1" xmlns="http://www.w3.org/2000/svg" xmlns:xlink="http://www.w3.org/1999/xlink" x="0px" y="0px"
	 viewBox="0 0 566.93 566.93" style="enable-background:new 0 0 566.93 566.93;" xml:space="preserve">
<style type="text/css">
	.st0{fill:#004259;}
	.st1{fill:#FFFFFF;}
</style>
<g>
	<circle class="st0" cx="283.46" cy="283.61" r="231.87"/>
	<path class="st1" d="M283.46,490.48c-114.23,0-207.17-92.94-207.17-207.17S169.23,76.14,283.46,76.14s207.17,92.94,207.17,207.17
		S397.7,490.48,283.46,490.48z M283.46,79.14c-112.58,0-204.17,91.59-204.17,204.17s91.59,204.17,204.17,204.17
		s204.17-91.59,204.17-204.17S396.04,79.14,283.46,79.14z"/>
	<polygon class="st1" points="168.8,282.16 140.57,241.4 137.11,241.4 137.11,325.23 141.45,325.23 141.45,249.78 167.26,287.44 
		167.42,287.68 170.17,287.68 195.98,249.68 195.98,325.23 200.33,325.23 200.33,241.4 197.02,241.4 	"/>
	<rect x="219.34" y="241.4" class="st1" width="4.35" height="83.83"/>
	<path class="st1" d="M426.02,244.57c-0.89-0.7-1.99-1.32-3.28-1.83c-1.27-0.5-2.64-0.93-4.07-1.27s-2.88-0.59-4.32-0.75
		c-1.44-0.15-2.74-0.23-3.86-0.23c-1.21,0-2.53,0.1-3.94,0.29c-1.39,0.19-2.8,0.46-4.18,0.81c-1.39,0.34-2.74,0.79-4.01,1.33
		c-1.28,0.54-2.39,1.18-3.27,1.88c-2.22,1.72-3.87,3.84-4.89,6.31c-1.02,2.45-1.54,5.27-1.54,8.38v48.58c0,1.1,0.13,2.42,0.4,3.93
		c0.27,1.53,0.78,3.16,1.53,4.86c0.76,1.73,1.91,3.32,3.43,4.73c1.69,1.56,4.14,2.76,7.31,3.58c3.13,0.8,6.21,1.21,9.16,1.21
		c2.95,0,6.06-0.41,9.23-1.21c3.2-0.81,5.72-2.01,7.51-3.58c1.51-1.41,2.66-2.96,3.42-4.61c0.75-1.62,1.3-3.17,1.66-4.6
		c0.36-1.45,0.54-2.71,0.54-3.74v-49.15C432.83,253.09,430.53,248.07,426.02,244.57z M414.45,322.64c-1.35,0.15-2.69,0.22-3.97,0.22
		c-2.46,0-5.09-0.32-7.81-0.96c-2.68-0.62-4.7-1.56-6.02-2.79c-1.23-1.16-2.15-2.47-2.72-3.9c-0.59-1.47-1.01-2.88-1.26-4.21
		c-0.25-1.31-0.33-2.9-0.25-4.77v-46.76c0-3.21,0.56-5.84,1.67-7.83c1.12-2,2.56-3.58,4.3-4.71c1.76-1.14,3.73-1.92,5.87-2.33
		c2.17-0.41,4.26-0.62,6.21-0.62c1.01,0,2.22,0.08,3.58,0.22c1.36,0.15,2.73,0.41,4.08,0.78c1.36,0.38,2.67,0.85,3.89,1.4
		c1.2,0.54,2.18,1.18,2.92,1.91c1.32,1.24,2.37,2.78,3.11,4.58c0.74,1.81,1.12,4.03,1.12,6.58l-0.13,47.45
		c0,1.69-0.13,3.16-0.37,4.36c-0.25,1.2-0.67,2.52-1.26,3.92c-0.57,1.36-1.49,2.64-2.73,3.8c-0.65,0.64-1.52,1.2-2.58,1.67
		c-1.09,0.48-2.31,0.89-3.63,1.23C417.15,322.24,415.8,322.49,414.45,322.64z"/>
	<polygon class="st1" points="343.05,282.16 314.83,241.4 311.36,241.4 311.36,325.23 315.71,325.23 315.71,249.78 341.51,287.44 
		341.68,287.68 344.43,287.68 370.24,249.68 370.24,325.23 374.59,325.23 374.59,241.4 371.27,241.4 	"/>
	<g>
		<path class="st1" d="M260.85,275.51l0.35-0.36c-2.09-2.36-4.1-4.63-5.72-6.98c-1.7-2.3-3-4.67-3.76-6.92
			c-0.64-2.28-0.8-4.35,0.02-6.15c0.75-1.79,2.21-3.48,4.29-5.03c4.02-3.03,9.68-4.92,16.16-5.86c0.17-0.03,0.33-0.05,0.49-0.07
			l-4.06,3.94l19.29-3.15l-16.32-9.43l1.96,5.04c-0.48,0.02-1.05,0.04-1.74,0.08c-3.61,0.21-7.22,0.74-10.63,1.75
			c-3.42,0.99-6.6,2.51-9.24,4.49c-2.6,1.98-4.72,4.46-5.55,7.28c-0.85,2.81-0.32,5.77,1.01,8.39
			C250.14,267.8,255.21,272.05,260.85,275.51z"/>
		<path class="st1" d="M292.25,302.83c-2.41-5.63-6.87-10.16-11.83-13.85l-0.31,0.38c1.84,2.52,3.6,4.94,5.04,7.45
			c1.49,2.45,2.64,4.99,3.31,7.38c0.57,2.43,0.7,4.64-0.02,6.56c-0.66,1.91-1.94,3.71-3.77,5.37c-3.53,3.23-8.52,5.24-14.22,6.25
			c-4.1,0.72-8.36,0.74-12.84,0.72l4.54-4.78l-18.98,3.36l16.06,10.06l-2.31-6.43c4.55,0.88,9.21,1.23,13.86,0.91
			c3.18-0.23,6.35-0.79,9.35-1.87c3.01-1.06,5.81-2.68,8.13-4.79c2.29-2.12,4.15-4.76,4.89-7.76
			C293.89,308.78,293.41,305.62,292.25,302.83z"/>
	</g>
</g>
</svg>
