<?xml version="1.0" encoding="utf-8"?>
<!-- Generator: Adobe Illustrator 23.0.3, SVG Export Plug-In . SVG Version: 6.00 Build 0)  -->
<svg version="1.1" xmlns="http://www.w3.org/2000/svg" xmlns:xlink="http://www.w3.org/1999/xlink" x="0px" y="0px"
	 viewBox="0 0 465.98 201.61" style="enable-background:new 0 0 465.98 201.61;" xml:space="preserve">
<style type="text/css">
	.st0{fill:#004259;}
	.st1{fill:#FFFFFF;}
</style>
<g id="Ebene_2">
</g>
<g id="Ebene_1">
</g>
<g id="Ebene_3">
</g>
<g id="Ebene_4">
</g>
<g id="Ebene_5">
</g>
<g id="Ebene_6">
	<g>
		<path class="st0" d="M448.02,200.61H18.12c-9.46,0-17.13-7.67-17.13-17.13V18.33C0.99,8.87,8.66,1.2,18.12,1.2h429.9
			c9.46,0,17.13,7.67,17.13,17.13v165.14C465.15,192.94,457.48,200.61,448.02,200.61z"/>
		<g>
			<path class="st1" d="M434.96,19.09c5.8,0,10.5,4.7,10.5,10.5v142.64c0,5.8-4.7,10.5-10.5,10.5H31.18c-5.8,0-10.5-4.7-10.5-10.5
				V29.58c0-5.8,4.7-10.5,10.5-10.5H434.96 M434.96,16.09H31.18c-7.44,0-13.5,6.05-13.5,13.5v142.64c0,7.44,6.05,13.5,13.5,13.5
				h403.78c7.44,0,13.5-6.05,13.5-13.5V29.58C448.46,22.14,442.4,16.09,434.96,16.09L434.96,16.09z"/>
		</g>
		<g>
			<polygon class="st1" points="117.9,99.46 89.68,58.7 86.21,58.7 86.21,142.52 90.56,142.52 90.56,67.08 116.36,104.73 
				116.53,104.98 119.27,104.98 145.09,66.98 145.09,142.52 149.44,142.52 149.44,58.7 146.12,58.7 			"/>
			<rect x="168.44" y="58.7" class="st1" width="4.35" height="83.83"/>
			<path class="st1" d="M375.12,61.86c-0.89-0.7-1.99-1.32-3.28-1.83c-1.27-0.5-2.64-0.93-4.07-1.27c-1.43-0.34-2.88-0.59-4.32-0.75
				c-1.44-0.15-2.74-0.23-3.86-0.23c-1.21,0-2.53,0.1-3.94,0.29c-1.39,0.19-2.8,0.46-4.18,0.81c-1.39,0.34-2.74,0.79-4.01,1.33
				c-1.28,0.54-2.39,1.18-3.27,1.88c-2.22,1.72-3.87,3.84-4.89,6.31c-1.02,2.45-1.54,5.27-1.54,8.38v48.58c0,1.1,0.13,2.42,0.4,3.93
				c0.27,1.53,0.78,3.16,1.53,4.86c0.76,1.73,1.91,3.32,3.43,4.73c1.69,1.56,4.14,2.76,7.31,3.58c3.13,0.8,6.21,1.21,9.16,1.21
				c2.95,0,6.06-0.41,9.23-1.21c3.2-0.81,5.72-2.01,7.51-3.58c1.51-1.41,2.66-2.96,3.42-4.61c0.75-1.62,1.3-3.17,1.66-4.6
				c0.36-1.45,0.54-2.71,0.54-3.74V76.77C381.93,70.38,379.64,65.36,375.12,61.86z M363.55,139.93c-1.35,0.15-2.69,0.22-3.97,0.22
				c-2.46,0-5.09-0.32-7.81-0.96c-2.68-0.62-4.7-1.56-6.02-2.79c-1.23-1.16-2.15-2.47-2.72-3.9c-0.59-1.47-1.01-2.88-1.26-4.21
				c-0.25-1.31-0.33-2.9-0.25-4.77V76.77c0-3.21,0.56-5.84,1.67-7.83c1.12-2,2.56-3.58,4.3-4.71c1.76-1.14,3.73-1.92,5.87-2.33
				c2.17-0.41,4.26-0.62,6.21-0.62c1.01,0,2.22,0.08,3.58,0.22c1.36,0.15,2.73,0.41,4.08,0.78c1.36,0.38,2.67,0.85,3.89,1.4
				c1.2,0.54,2.18,1.18,2.92,1.91c1.32,1.24,2.37,2.78,3.11,4.58c0.74,1.81,1.12,4.03,1.12,6.58l-0.13,47.45
				c0,1.69-0.13,3.16-0.37,4.36c-0.25,1.2-0.67,2.52-1.26,3.92c-0.57,1.36-1.49,2.64-2.73,3.8c-0.65,0.64-1.52,1.2-2.58,1.67
				c-1.09,0.48-2.31,0.89-3.63,1.23C366.26,139.54,364.9,139.79,363.55,139.93z"/>
			<polygon class="st1" points="292.16,99.46 263.93,58.7 260.47,58.7 260.47,142.52 264.82,142.52 264.82,67.08 290.62,104.73 
				290.78,104.98 293.53,104.98 319.34,66.98 319.34,142.52 323.69,142.52 323.69,58.7 320.38,58.7 			"/>
			<g>
				<path class="st1" d="M209.95,92.8l0.35-0.36c-2.09-2.36-4.1-4.63-5.72-6.98c-1.7-2.3-3-4.67-3.76-6.92
					c-0.64-2.28-0.8-4.35,0.02-6.15c0.75-1.79,2.21-3.48,4.29-5.03c4.02-3.03,9.68-4.92,16.16-5.86c0.17-0.03,0.33-0.05,0.49-0.07
					l-4.06,3.94l19.29-3.15l-16.32-9.43l1.96,5.04c-0.48,0.02-1.05,0.04-1.74,0.08c-3.61,0.21-7.22,0.74-10.63,1.75
					c-3.42,0.99-6.6,2.51-9.24,4.49c-2.6,1.98-4.72,4.46-5.55,7.28c-0.85,2.81-0.32,5.77,1.01,8.39
					C199.25,85.1,204.32,89.35,209.95,92.8z"/>
				<path class="st1" d="M241.35,120.12c-2.41-5.63-6.87-10.16-11.83-13.85l-0.31,0.38c1.84,2.52,3.6,4.94,5.04,7.45
					c1.49,2.45,2.64,4.99,3.31,7.38c0.57,2.43,0.7,4.64-0.02,6.56c-0.66,1.91-1.94,3.71-3.77,5.37c-3.53,3.23-8.52,5.24-14.22,6.25
					c-4.1,0.72-8.36,0.74-12.84,0.72l4.54-4.78l-18.98,3.36l16.06,10.06l-2.31-6.43c4.55,0.88,9.21,1.23,13.86,0.91
					c3.18-0.23,6.35-0.79,9.35-1.87c3.01-1.06,5.81-2.68,8.13-4.79c2.29-2.12,4.15-4.76,4.89-7.76
					C242.99,126.08,242.52,122.92,241.35,120.12z"/>
			</g>
		</g>
	</g>
</g>
</svg>
